<svg width="24" height="24" viewBox="0 0 24 24" fill="none" xmlns="http://www.w3.org/2000/svg">
<rect width="24" height="24" rx="4" fill="white"/>
<path d="M12 7.41724C10.2436 7.41724 8.81818 8.8427 8.81818 10.5991C8.81818 12.4868 10.8092 15.0856 11.6413 16.0892C11.8303 16.3173 12.1697 16.3173 12.3587 16.0892C13.1908 15.0856 15.1818 12.4868 15.1818 10.5991C15.1818 8.84179 13.7564 7.41724 12 7.41724ZM12 12.0073C11.2473 12.0073 10.6364 11.3963 10.6364 10.6436C10.6364 9.89088 11.2473 9.27997 12 9.27997C12.7527 9.27997 13.3636 9.89088 13.3636 10.6436C13.3636 11.3963 12.7527 12.0073 12 12.0073Z" fill="#2E3D4A"/>
<path fill-rule="evenodd" clip-rule="evenodd" d="M8.89325 6.16592C9.14127 6.41394 9.53303 6.43174 9.83407 6.25174C10.4844 5.8629 11.2247 5.63629 12 5.63629C12.7753 5.63629 13.5156 5.8629 14.1659 6.25174C14.467 6.43174 14.8587 6.41394 15.1068 6.16592V6.16592C15.3942 5.87848 15.3745 5.40275 15.0327 5.18259C14.1461 4.61132 13.1086 4.27265 12 4.27265C10.8914 4.27265 9.85392 4.61132 8.96725 5.18259C8.62554 5.40275 8.60581 5.87848 8.89325 6.16592V6.16592ZM16.4001 3.96803C16.6895 4.18494 17.0982 4.17451 17.3539 3.91876V3.91876C17.6319 3.64077 17.621 3.18433 17.3096 2.94442C15.8161 1.79401 13.982 1.09082 12 1.09082C10.018 1.09082 8.18394 1.79401 6.69041 2.94442C6.37895 3.18433 6.36809 3.64077 6.64609 3.91876V3.91876C6.90184 4.17451 7.3105 4.18494 7.59993 3.96803C8.8568 3.0261 10.3784 2.45446 12 2.45446C13.6216 2.45446 15.1432 3.0261 16.4001 3.96803Z" fill="#2E3D4A"/>
<path fill-rule="evenodd" clip-rule="evenodd" d="M15.1764 14.4971C14.9809 14.8207 14.78 15.1307 14.5809 15.4189L16.6127 16.4353L15.3018 17.0907L13.8764 16.378C13.5791 16.7607 13.3282 17.0589 13.1682 17.2434L14.0827 17.7007L12.3854 18.5489L7.77269 16.2425L9.41815 15.4198C9.21906 15.1316 9.01815 14.8216 8.82269 14.498L2.89445 17.4617C2.5259 17.646 2.52589 18.1719 2.89443 18.3561L11.5528 22.6853C11.8343 22.8261 12.1657 22.8261 12.4472 22.6853L21.1056 18.3561C21.4741 18.1719 21.4741 17.646 21.1056 17.4617L15.1764 14.4971ZM4.43904 17.9089L6.55269 16.8516L11.1663 19.158L9.0527 20.2153L4.43904 17.9089ZM12 21.6889L10.2727 20.8253L12.3863 19.768L14.1136 20.6316L12 21.6889ZM15.3336 20.0225L13.6064 19.1589L15.3036 18.3107L17.0309 19.1744L15.3336 20.0225ZM18.25 18.5644L16.5227 17.7007L17.8336 17.0453L19.5609 17.9089L18.25 18.5644Z" fill="#2E3D4A"/>
</svg>
