<svg width="24" height="24" viewBox="0 0 24 24" fill="none" xmlns="http://www.w3.org/2000/svg">
<rect width="24" height="24" rx="4" fill="white"/>
<path d="M12 7.79919C10.39 7.79919 9.08337 9.10585 9.08337 10.7158C9.08337 12.4236 10.861 14.7662 11.6407 15.7116C11.8292 15.9401 12.1709 15.9401 12.3593 15.7116C13.139 14.7662 14.9167 12.4236 14.9167 10.7158C14.9167 9.10502 13.61 7.79919 12 7.79919ZM12 12.0067C11.31 12.0067 10.75 11.4467 10.75 10.7567C10.75 10.0667 11.31 9.50669 12 9.50669C12.69 9.50669 13.25 10.0667 13.25 10.7567C13.25 11.4467 12.69 12.0067 12 12.0067Z" fill="#051626"/>
<path fill-rule="evenodd" clip-rule="evenodd" d="M9.15216 6.65213C9.37951 6.87948 9.73862 6.8958 10.0146 6.7308C10.6107 6.37436 11.2893 6.16665 12 6.16665C12.7107 6.16665 13.3893 6.37436 13.9854 6.7308C14.2614 6.8958 14.6205 6.87948 14.8478 6.65213C15.1113 6.38865 15.0932 5.95257 14.78 5.75076C13.9672 5.2271 13.0162 4.91665 12 4.91665C10.9838 4.91665 10.0328 5.2271 9.22 5.75076C8.90676 5.95257 8.88868 6.38865 9.15216 6.65213ZM16.0333 4.63742C16.2987 4.83625 16.6733 4.82669 16.9077 4.59225C17.1625 4.33743 17.1526 3.91903 16.8671 3.69912C15.498 2.64459 13.8168 2 12 2C10.1832 2 8.50197 2.64459 7.13291 3.69912C6.84741 3.91903 6.83746 4.33743 7.09228 4.59225C7.32672 4.82669 7.70132 4.83625 7.96663 4.63742C9.11875 3.77399 10.5136 3.24999 12 3.24999C13.4864 3.24999 14.8812 3.77399 16.0333 4.63742Z" fill="#051626"/>
<path fill-rule="evenodd" clip-rule="evenodd" d="M14.9116 14.2889C14.7325 14.5856 14.5483 14.8698 14.3658 15.1339L16.2283 16.0656L15.0266 16.6664L13.72 16.0131C13.4475 16.3639 13.2175 16.6373 13.0708 16.8064L13.9092 17.2256L12.3533 18.0031L8.12501 15.8889L9.63334 15.1348C9.45084 14.8706 9.26668 14.5864 9.08751 14.2898L3.72788 16.9692C3.35934 17.1535 3.35933 17.6794 3.72786 17.8637L11.5528 21.7761C11.8343 21.9169 12.1657 21.9169 12.4472 21.7761L20.2722 17.8636C20.6407 17.6794 20.6407 17.1535 20.2722 16.9692L14.9116 14.2889ZM5.0692 17.4164L7.00669 16.4473L11.2358 18.5614L9.29834 19.5306L5.0692 17.4164ZM12 20.8814L10.4167 20.0897L12.3542 19.1206L13.9375 19.9122L12 20.8814ZM15.0558 19.3539L13.4725 18.5623L15.0283 17.7848L16.6116 18.5764L15.0558 19.3539ZM17.7291 18.0173L16.1458 17.2256L17.3475 16.6248L18.9308 17.4164L17.7291 18.0173Z" fill="#051626"/>
</svg>
