<?xml version="1.0" encoding="utf-8"?>
<!-- Generator: Adobe Illustrator 24.0.1, SVG Export Plug-In . SVG Version: 6.00 Build 0)  -->
<svg version="1.1" id="Layer_1" xmlns="http://www.w3.org/2000/svg" xmlns:xlink="http://www.w3.org/1999/xlink" x="0px" y="0px"
	 viewBox="0 0 24 24" style="enable-background:new 0 0 24 24;" xml:space="preserve">
<style type="text/css">
	.st0{fill:#FFFFFF;}
	.st1{fill:#051626;}
	.st2{fill-rule:evenodd;clip-rule:evenodd;fill:#051626;}
</style>
<path class="st0" d="M20.1,24H3.9C1.8,24,0,22.2,0,20.1V3.9C0,1.8,1.8,0,3.9,0h16.1C22.2,0,24,1.8,24,3.9v16.1
	C24,22.2,22.2,24,20.1,24z"/>
<g>
	<path class="st1" d="M12,7.6c-1.7,0-3.1,1.4-3.1,3.1c0,2.3,3.1,5.7,3.1,5.7s3.1-3.4,3.1-5.7C15.1,8.9,13.7,7.6,12,7.6z M12,12
		c-0.7,0-1.3-0.6-1.3-1.3c0-0.7,0.6-1.3,1.3-1.3s1.3,0.6,1.3,1.3C13.3,11.4,12.7,12,12,12z"/>
	<path class="st2" d="M9.4,6.8c0.7-0.6,1.6-1,2.6-1s1.9,0.4,2.6,1l1-1c-1-0.8-2.2-1.3-3.5-1.3S9.4,5,8.5,5.8L9.4,6.8z M16.8,4.6l1-1
		c-1.6-1.3-3.5-2.2-5.7-2.2S7.9,2.3,6.3,3.6l1,1c1.3-1.1,3-1.9,4.8-1.9S15.5,3.4,16.8,4.6z"/>
	<path class="st2" d="M15.1,14.4c-0.2,0.4-0.4,0.6-0.6,0.9l1.9,1l-1.2,0.6l-1.4-0.7c-0.3,0.4-0.5,0.6-0.7,0.9l0.9,0.4l-1.7,0.8
		l-4.5-2.2l1.6-0.8C9.2,15,9,14.7,8.7,14.4l-6.5,3.4l9.7,4.9l9.7-4.9L15.1,14.4z M4.7,17.7l2-1.1l4.5,2.2l-2,1.1L4.7,17.7z M12,21.5
		l-1.7-0.9l2-1.1l1.7,0.8L12,21.5z M15.3,19.8L13.6,19l1.7-0.8L17,19L15.3,19.8z M18.1,18.4l-1.7-0.8l1.2-0.6l1.7,0.9L18.1,18.4z"/>
</g>
<image style="overflow:visible;" width="576" height="1280" xlink:href="EFD8CDBC.jpg"  transform="matrix(1 0 0 1 208.6217 -339.8336)">
</image>
</svg>
