<svg width="24" height="24" viewBox="0 0 24 24" fill="none" xmlns="http://www.w3.org/2000/svg">
<path d="M12 6.95898C10.068 6.95898 8.5 8.52698 8.5 10.459C8.5 12.5628 10.7482 15.4695 11.6409 16.5408C11.8305 16.7684 12.1695 16.7684 12.3591 16.5408C13.2518 15.4695 15.5 12.5628 15.5 10.459C15.5 8.52598 13.932 6.95898 12 6.95898ZM12 12.008C11.172 12.008 10.5 11.336 10.5 10.508C10.5 9.67998 11.172 9.00798 12 9.00798C12.828 9.00798 13.5 9.67998 13.5 10.508C13.5 11.336 12.828 12.008 12 12.008Z" fill="white"/>
<path fill-rule="evenodd" clip-rule="evenodd" d="M8.58256 5.58259C8.85538 5.85541 9.28632 5.87499 9.61746 5.67699C10.3328 5.24926 11.1472 5 12 5C12.8528 5 13.6671 5.24926 14.3825 5.67699C14.7136 5.87499 15.1446 5.85541 15.4174 5.58259C15.7336 5.26641 15.7119 4.74311 15.336 4.50093C14.3607 3.87254 13.2194 3.5 12 3.5C10.7806 3.5 9.6393 3.87254 8.66397 4.50093C8.28808 4.74311 8.26638 5.26641 8.58256 5.58259ZM16.84 3.16491C17.1584 3.40351 17.6079 3.39205 17.8893 3.11072C18.195 2.80493 18.1831 2.30285 17.8405 2.03896C16.1976 0.773509 14.1802 0 12 0C9.81979 0 7.80232 0.773508 6.15945 2.03896C5.81685 2.30285 5.8049 2.80493 6.11069 3.11072C6.39202 3.39205 6.84154 3.40352 7.15992 3.16491C8.54247 2.12879 10.2162 1.5 12 1.5C13.7837 1.5 15.4575 2.12879 16.84 3.16491Z" fill="white"/>
<path fill-rule="evenodd" clip-rule="evenodd" d="M15.494 14.7469C15.279 15.1029 15.058 15.4439 14.839 15.7609L17.074 16.8789L15.632 17.5999L14.064 16.8159C13.737 17.2369 13.461 17.5649 13.285 17.7679L14.291 18.2709L12.424 19.2039L7.35 16.6669L9.16 15.7619C8.941 15.4449 8.72 15.1039 8.505 14.7479L1.89451 18.0528C1.52597 18.237 1.52595 18.7629 1.89449 18.9472L11.5528 23.7763C11.8343 23.9171 12.1657 23.9171 12.4472 23.7763L22.1056 18.9472C22.4741 18.7629 22.4741 18.237 22.1056 18.0527L15.494 14.7469ZM3.683 18.4999L6.008 17.3369L11.083 19.8739L8.758 21.0369L3.683 18.4999ZM12 22.6579L10.1 21.7079L12.425 20.5449L14.325 21.4949L12 22.6579ZM15.667 20.8249L13.767 19.8749L15.634 18.9419L17.534 19.8919L15.667 20.8249ZM18.875 19.2209L16.975 18.2709L18.417 17.5499L20.317 18.4999L18.875 19.2209Z" fill="white"/>
</svg>
