<svg width="24" height="24" viewBox="0 0 24 24" fill="none" xmlns="http://www.w3.org/2000/svg">
<path fill-rule="evenodd" clip-rule="evenodd" d="M23.4867 14.5C23.6339 14.5 23.7615 14.3971 23.789 14.2524C23.9275 13.5228 24 12.7699 24 12C24 5.37258 18.6274 0 12 0C5.37258 0 0 5.37258 0 12C0 12.7699 0.0725014 13.5228 0.211049 14.2524C0.238519 14.3971 0.366109 14.5 0.513347 14.5H7.88169C8.13508 14.5 8.28789 14.2093 8.17111 13.9844C7.86263 13.3904 7.68831 12.7156 7.68831 12C7.68831 9.61872 9.61872 7.68831 12 7.68831C14.3813 7.68831 16.3117 9.61872 16.3117 12C16.3117 12.7156 16.1374 13.3904 15.8289 13.9844C15.7121 14.2093 15.8649 14.5 16.1183 14.5H23.4867Z" fill="url(#paint0_linear_4282_7822)"/>
<path fill-rule="evenodd" clip-rule="evenodd" d="M1.73932 15.9998C1.32511 15.9998 0.989319 16.3355 0.989319 16.7498C0.989319 17.164 1.32511 17.4998 1.73932 17.4998H5.25006C5.66427 17.4998 6.00006 17.8355 6.00006 18.2498V18.2498C6.00006 18.664 5.66427 18.9998 5.25006 18.9998H3.75006C3.33585 18.9998 3.00006 19.3355 3.00006 19.7498C3.00006 20.164 3.33585 20.4998 3.75006 20.4998H8.25006C8.66427 20.4998 9.00006 20.8355 9.00006 21.2498V21.2498C9.00006 21.664 8.66427 21.9998 8.25006 21.9998H7.55562C7.24879 21.9998 7.00006 22.2684 7.00006 22.5998C7.00006 22.9311 7.24879 23.1998 7.55562 23.1998V23.1998C7.63964 23.1998 7.72287 23.2155 7.80159 23.2449C9.10835 23.733 10.523 23.9998 12 23.9998C13.4769 23.9998 14.8916 23.733 16.1983 23.2449C16.2771 23.2155 16.3604 23.1998 16.4445 23.1998V23.1998C16.7513 23.1998 17.0001 22.9311 17.0001 22.5998C17.0001 22.2684 16.7513 21.9998 16.4445 21.9998H14.7501C14.3358 21.9998 14.0001 21.664 14.0001 21.2498V21.2498C14.0001 20.8355 14.3358 20.4998 14.7501 20.4998H20.2501C20.6643 20.4998 21.0001 20.164 21.0001 19.7498C21.0001 19.3355 20.6643 18.9998 20.2501 18.9998H19.7501C19.3358 18.9998 19.0001 18.664 19.0001 18.2498V18.2498C19.0001 17.8355 19.3358 17.4998 19.7501 17.4998H22.2393C22.6535 17.4998 22.9893 17.164 22.9893 16.7498C22.9893 16.3355 22.6535 15.9998 22.2393 15.9998H19.0001H17.0001H9.00006H6.00006H1.73932ZM9.75006 17.4998C9.33585 17.4998 9.00006 17.8355 9.00006 18.2498V18.2498C9.00006 18.664 9.33585 18.9998 9.75006 18.9998H14.0001H16.2501C16.6643 18.9998 17.0001 18.664 17.0001 18.2498V18.2498C17.0001 17.8355 16.6643 17.4998 16.2501 17.4998H9.75006Z" fill="url(#paint1_linear_4282_7822)"/>
<defs>
<linearGradient id="paint0_linear_4282_7822" x1="0.85297" y1="14.5" x2="24.0691" y2="14.2715" gradientUnits="userSpaceOnUse">
<stop stop-color="#17C69C"/>
<stop offset="1" stop-color="#69F15D"/>
</linearGradient>
<linearGradient id="paint1_linear_4282_7822" x1="0.989319" y1="19.9998" x2="22.9893" y2="19.9998" gradientUnits="userSpaceOnUse">
<stop stop-color="#26ABFF"/>
<stop offset="1" stop-color="#00CCFF"/>
</linearGradient>
</defs>
</svg>
