<svg width="24" height="24" viewBox="0 0 24 24" fill="none" xmlns="http://www.w3.org/2000/svg">
<g clip-path="url(#clip0_1931_1588)">
<path d="M17.4432 21.9151C17.4644 21.9417 17.4909 21.9684 17.5068 22.0004C17.7556 22.4215 17.7344 22.5335 17.3162 22.7734C16.4639 23.2691 15.5217 23.5144 14.5636 23.6583C11.541 24.1221 8.52367 24.1327 5.51695 23.5517C4.69116 23.3917 3.90242 23.1359 3.17192 22.6934C2.94959 22.5601 2.91783 22.4055 3.01841 22.1869C3.18251 21.8404 3.44189 21.5792 3.73833 21.35C4.3312 20.8969 4.99818 20.5717 5.70222 20.3264C5.90337 20.2571 5.99866 20.1665 6.01454 19.9479C6.09923 18.8871 6.19452 17.8262 6.2898 16.7654C6.34274 16.1363 6.39567 15.5073 6.44861 14.8835C6.46978 14.0092 6.67093 13.7001 7.34851 13.5028C8.0896 13.5508 8.54484 13.9933 8.61895 14.7769C8.80422 16.744 8.97891 18.7165 9.15889 20.6836C9.19594 21.0941 9.25417 21.5099 9.30711 21.9204C9.31769 22.2616 9.51885 22.4748 9.78882 22.6347C10.297 22.9386 10.874 23.0079 11.4404 23.0239C12.118 23.0399 12.7955 23.0346 13.4731 22.9919C14.5742 22.9173 15.6329 22.6987 16.6492 22.2776C16.9192 22.1603 17.1574 21.979 17.4432 21.9151ZM7.81963 14.8675C7.82492 14.4944 7.5973 14.1905 7.33792 14.2012C7.08912 14.2118 6.87738 14.5104 6.88268 14.8515C6.88268 14.9528 6.89856 15.0435 6.93561 15.1341C7.01501 15.3153 7.12618 15.4646 7.33792 15.4699C7.56025 15.4753 7.682 15.3207 7.76669 15.1341C7.80375 15.0488 7.82492 14.9528 7.81963 14.8675Z" fill="#93CFDE"/>
<path d="M1.73737 0.410005C2.16614 0.138126 2.64256 0.0421687 3.13485 0.0101829C4.27296 -0.0537886 5.36343 0.191436 6.4433 0.527286C8.47602 1.167 10.3552 2.14257 12.1603 3.2674C12.5573 3.51263 12.949 3.77384 13.3355 4.03506C13.4519 4.11502 13.5419 4.12569 13.6743 4.06705C14.6271 3.65123 15.5852 3.24608 16.5433 2.84092C16.6757 2.78762 16.7445 2.72364 16.718 2.56905C16.6968 2.44643 16.7604 2.34515 16.8345 2.25452C17.1944 1.79072 17.5544 1.33226 17.9091 0.868468C18.0626 0.665891 18.2584 0.607251 18.4914 0.697877C18.7613 0.799166 18.9889 0.969756 19.1425 1.22031C19.2854 1.44421 19.2907 1.66278 19.1107 1.88135C18.7666 2.30783 18.4808 2.79295 18.0838 3.16078C17.7661 3.45399 17.7556 3.77917 17.7185 4.13635C17.6232 5.11725 17.5332 6.09814 17.4274 7.07904C17.4062 7.27629 17.5279 7.35092 17.6338 7.44688C18.7296 8.45443 19.7512 9.53128 20.6617 10.7148C21.5563 11.8716 22.3609 13.087 22.8162 14.4997C22.9591 14.9475 23.0491 15.406 23.0385 15.8805C23.0226 16.6055 22.6944 17.1652 22.1174 17.5864C22.0698 17.5864 22.0327 17.6077 22.0221 17.6557L22.0168 17.645L22.0274 17.6557C21.9957 17.6503 21.9692 17.661 21.9639 17.6983C21.9216 17.7037 21.8739 17.7037 21.8369 17.7196C21.1169 18.0395 20.3494 18.0128 19.5977 17.9435C18.5231 17.8423 17.4962 17.5064 16.4851 17.1386C15.9822 16.9573 15.4793 16.7654 15.0135 16.4935C15.2729 16.5042 15.527 16.5682 15.7864 16.5148C16.0987 16.4455 16.1463 16.3123 15.9716 16.0404C15.9928 15.7738 16.014 15.5126 16.0405 15.2461C16.1199 14.4358 16.2046 13.6308 16.284 12.8205C16.3792 11.8716 16.4692 10.9227 16.5592 9.97375C16.6174 9.40334 16.6122 8.81693 16.7445 8.26252C16.9139 7.56416 16.6545 7.12169 16.0987 6.76985C15.8181 6.59392 15.6276 6.29539 15.2941 6.18877C15.4158 6.04483 15.4952 5.86358 15.6646 5.75696C16.0563 6.07682 16.4481 6.39668 16.8768 6.74852C16.9774 5.70365 17.078 4.70676 17.1733 3.70454C17.1839 3.60325 17.1891 3.49663 17.1997 3.39534C17.2103 3.25141 17.1786 3.1981 17.025 3.27806C16.8609 3.36869 16.681 3.43799 16.5063 3.51263C16.4904 3.51263 16.4692 3.51263 16.4533 3.51796C15.7017 3.83781 14.95 4.15234 14.2036 4.47753C14.0342 4.54683 14.1665 4.60547 14.2248 4.65345C14.5265 4.88268 14.8282 5.11192 15.13 5.34115C15.0717 5.49574 14.9976 5.63968 14.8388 5.71431C14.4683 5.54905 14.1665 5.27184 13.8595 5.02129C13.5684 4.78673 13.3249 4.78673 13.0443 4.99997C12.2079 5.30383 11.4033 5.68766 10.5881 6.03417C8.79892 6.79117 7.00971 7.55883 5.2205 8.32116C5.02993 8.21987 4.85525 8.09725 4.8129 7.86269C4.85525 7.83604 4.90289 7.80405 4.95053 7.78273C6.94089 6.9351 8.93655 6.08215 10.9269 5.23453C11.4669 5.0053 12.0227 4.80272 12.5414 4.51485C12.6579 4.48819 12.7796 4.47753 12.8855 4.37091C12.6632 4.179 12.4197 4.03506 12.1762 3.89112C10.9481 3.08615 9.67235 2.3718 8.33309 1.76407C7.05206 1.18299 5.73927 0.681884 4.33648 0.516624C3.56892 0.425998 2.80136 0.404674 2.11321 0.863137C2.08674 0.623244 1.96499 0.473977 1.73737 0.410005ZM16.7127 16.3709C17.1839 16.5735 17.6709 16.7334 18.1579 16.8774C18.9836 17.1172 19.82 17.2772 20.6829 17.2292C21.0375 17.2079 21.3816 17.1332 21.6992 16.968C22.3503 16.6215 22.6203 15.9444 22.4615 15.0648C22.2709 13.988 21.7363 13.0764 21.1487 12.1861C20.3229 10.9333 19.3171 9.82982 18.2637 8.76363C17.9832 8.47575 17.6814 8.2092 17.3532 7.90001C17.3003 8.40112 17.2474 8.84892 17.2103 9.29672C17.1574 9.93111 17.0515 10.5602 17.0409 11.1999C17.0198 11.3651 16.9933 11.5304 16.9721 11.6957C16.8874 12.5646 16.8027 13.4335 16.718 14.3025C16.6598 14.8889 16.6016 15.4806 16.5486 16.067C16.5486 16.195 16.5169 16.3443 16.7127 16.3709ZM18.4596 1.28428C18.4649 1.03906 18.3378 0.959095 18.1526 1.07104C17.962 1.18299 17.8191 1.35892 17.6709 1.52418C17.4538 1.7694 17.2527 2.03062 17.1521 2.35048C17.1203 2.44643 17.0886 2.56905 17.1944 2.64368C17.2791 2.70232 17.3638 2.63302 17.4379 2.59037C17.655 2.46243 17.8297 2.2865 17.9832 2.09459C18.1949 1.84403 18.4014 1.58815 18.4596 1.28428Z" fill="#82ADBF"/>
<path d="M7.3485 13.5029C6.67093 13.7055 6.46978 14.0093 6.4486 14.8836C4.51647 13.1404 3.24073 10.944 2.22967 8.57707C1.54151 6.96712 1.01745 5.30919 0.816301 3.5553C0.768659 3.15015 0.715724 2.745 0.779246 2.33984C0.900997 3.65126 1.46211 4.79209 2.16615 5.86361C3.1878 7.42025 4.39472 8.8223 5.74457 10.1071C6.68152 10.9973 7.66082 11.829 8.67188 12.6179C10.1064 13.7428 11.6204 14.7343 13.219 15.6033C13.7272 15.8805 14.246 16.147 14.7541 16.4242C14.4312 16.4882 14.103 16.4296 13.7801 16.4242C12.3562 16.4029 10.964 16.163 9.58766 15.8165C9.44474 15.7792 9.37063 15.7099 9.34945 15.55C9.27534 15.0702 9.21711 14.5851 8.97361 14.1479C8.62424 13.5135 7.87785 13.2523 7.3485 13.5029Z" fill="#82ADBF"/>
<path d="M7.34851 13.5029C7.87786 13.2577 8.62425 13.5189 8.97891 14.1533C9.22242 14.5904 9.28065 15.0755 9.35475 15.5553C9.38122 15.7153 9.45004 15.7846 9.59296 15.8219C10.9693 16.1684 12.3615 16.4136 13.7854 16.4296C14.1083 16.4349 14.4312 16.4936 14.7594 16.4296C14.8441 16.4509 14.9235 16.4723 15.0082 16.4936C15.4741 16.7655 15.9769 16.9574 16.4798 17.1386C17.4909 17.5011 18.5178 17.837 19.5924 17.9436C20.3441 18.0182 21.1064 18.0396 21.8316 17.7197C21.8686 17.7037 21.9163 17.7037 21.9586 17.6984C21.604 18.0182 21.1487 18.1142 20.7094 18.2208C19.7353 18.45 18.7455 18.4874 17.745 18.4714C16.5804 18.4554 15.4317 18.3114 14.283 18.1355C14.1083 18.1035 13.9389 18.0715 13.7643 18.0396C13.6107 18.0076 13.5366 18.0342 13.5578 18.2208C13.6584 19.0205 13.7431 19.8201 13.8437 20.6251C13.8648 20.7957 13.8066 20.865 13.6478 20.9023C12.1974 21.2381 10.7469 21.5846 9.30182 21.9258C9.25418 21.5153 9.19595 21.1049 9.1536 20.689C8.96833 18.7219 8.79893 16.7495 8.61366 14.7823C8.54485 13.988 8.0896 13.5509 7.34851 13.5029ZM11.1016 17.3785C10.6199 17.1386 10.0958 17.016 9.55591 16.7708C9.70942 17.5918 9.85235 18.3594 9.98998 19.1217C10.0112 19.2337 10.08 19.2337 10.1647 19.223C10.4293 19.191 10.6887 19.1644 10.9534 19.1377C11.0063 19.1377 11.0593 19.1324 11.1122 19.1324C11.3504 19.1377 11.5039 19.0631 11.5039 18.7752C11.5039 18.4874 11.5622 18.1942 11.578 17.9063C11.6045 17.4638 11.5939 17.4532 11.1493 17.3785C11.1387 17.3732 11.1228 17.3785 11.1016 17.3785Z" fill="#32798A"/>
<path d="M15.0082 16.4936C14.9235 16.4722 14.8441 16.4509 14.7594 16.4296C14.2512 16.1524 13.7325 15.8858 13.2243 15.6086C11.6257 14.7343 10.1117 13.7428 8.67716 12.6233C7.66081 11.829 6.6815 10.9973 5.74985 10.1124C4.4 8.82763 3.19308 7.42558 2.17143 5.86894C1.46739 4.79209 0.900982 3.65126 0.779231 2.33984C0.763351 1.65748 0.916863 1.03909 1.46739 0.585956C1.54679 0.516653 1.64207 0.468675 1.73206 0.410034C1.95969 0.474006 2.08673 0.628604 2.10261 0.868497C1.7056 1.19902 1.53091 1.63616 1.53091 2.14793C1.53091 2.81963 1.73736 3.43802 2.02321 4.03509C2.66902 5.37849 3.56362 6.54597 4.54822 7.65481C4.62233 7.74011 4.69643 7.83074 4.81819 7.86272C4.86053 8.09728 5.03522 8.2199 5.22579 8.32119C5.25225 8.4438 5.34754 8.5131 5.42694 8.59306C6.25802 9.45135 7.13675 10.2563 8.05253 11.0187C9.01595 11.8183 10.0164 12.5753 11.0645 13.2683C12.1232 13.972 13.2243 14.6117 14.3412 15.2195C14.8759 15.5073 15.3946 15.8272 15.9663 16.0404C16.141 16.3123 16.0934 16.4456 15.7811 16.5149C15.5217 16.5682 15.2623 16.5042 15.0082 16.4936Z" fill="#93CFDE"/>
<path d="M9.3071 21.9151C10.7575 21.5739 12.2027 21.2274 13.6531 20.8915C13.8119 20.8542 13.8701 20.7903 13.8489 20.6143C13.7484 19.8147 13.6637 19.0151 13.5631 18.2101C13.5366 18.0182 13.6107 17.9915 13.7695 18.0288C13.9442 18.0661 14.1136 18.0928 14.2883 18.1248C14.373 18.7645 14.4683 19.4042 14.5477 20.0439C14.5689 20.1985 14.6694 20.2145 14.7753 20.2518C15.5164 20.5237 16.2522 20.8222 16.8821 21.318C17.0939 21.4886 17.3056 21.6645 17.4485 21.8991C17.1627 21.9631 16.9245 22.1443 16.6598 22.2563C15.6381 22.6828 14.5847 22.9013 13.4837 22.9706C12.8061 23.0133 12.1285 23.0239 11.451 23.0026C10.8793 22.9866 10.3076 22.9173 9.79939 22.6135C9.51884 22.4695 9.31769 22.2563 9.3071 21.9151Z" fill="#82ADBF"/>
<path d="M22.0168 17.661C22.0327 17.613 22.0645 17.597 22.1121 17.5917C22.0962 17.6343 22.0645 17.661 22.0168 17.661Z" fill="#32798A"/>
<path d="M21.9533 17.6983C21.9639 17.6663 21.9851 17.6503 22.0168 17.6557C22.0062 17.693 21.9851 17.7037 21.9533 17.6983Z" fill="#32798A"/>
<path d="M7.81961 14.8676C7.82491 14.9529 7.80903 15.0489 7.76668 15.1395C7.68198 15.3261 7.56023 15.4807 7.3379 15.4753C7.12616 15.47 7.015 15.3207 6.9356 15.1395C6.89854 15.0489 6.88266 14.9529 6.88266 14.8569C6.88266 14.5158 7.08911 14.2172 7.3379 14.2066C7.59728 14.1959 7.81961 14.4998 7.81961 14.8676Z" fill="#32798A"/>
<path d="M15.9663 16.0404C15.3946 15.8272 14.8759 15.5073 14.3412 15.2195C13.2243 14.6171 12.1285 13.972 11.0646 13.2683C10.0164 12.5753 9.02125 11.8183 8.05254 11.0187C7.13676 10.2563 6.25274 9.45135 5.42695 8.59307C5.34755 8.5131 5.24697 8.4438 5.2258 8.32119C7.01501 7.55886 8.80422 6.7912 10.5934 6.03421C11.4139 5.68769 12.2132 5.30386 13.0496 5C13.2825 5.29853 13.5102 5.59707 13.7484 5.89027C13.9231 6.10351 14.0395 6.37539 14.2989 6.51399C14.2512 6.58863 14.2036 6.66326 14.1507 6.73256C13.8013 7.20702 13.4466 7.68681 13.0973 8.16126C12.9861 8.31053 12.9808 8.46513 13.129 8.58774C13.2508 8.68903 13.3937 8.6837 13.5155 8.57708C13.5684 8.53443 13.6054 8.47046 13.6478 8.41182C13.9813 7.96935 14.3148 7.52155 14.6483 7.07908C15.167 7.83074 15.6752 8.58241 16.1463 9.36073C16.2681 9.56864 16.3369 9.81386 16.5539 9.96313C16.4639 10.912 16.374 11.861 16.2787 12.8099C16.1993 13.6202 16.1146 14.4251 16.0352 15.2354C16.0087 15.5127 15.9875 15.7739 15.9663 16.0404Z" fill="#E0E0E0"/>
<path d="M4.8129 7.86275C4.69114 7.83076 4.62233 7.74014 4.54293 7.65484C3.56363 6.546 2.66902 5.37852 2.02321 4.03512C1.73736 3.44338 1.53091 2.81966 1.53091 2.14796C1.53091 1.63619 1.7056 1.19372 2.10791 0.863196C2.79607 0.404733 3.56892 0.426057 4.33119 0.516683C5.73926 0.681943 7.04676 1.18305 8.32779 1.76413C9.66176 2.37186 10.9428 3.08621 12.1709 3.89118C12.0703 4.0138 12.2079 4.05644 12.2556 4.12041C12.3509 4.24836 12.5203 4.32299 12.5361 4.50957C12.0174 4.79745 11.4668 4.99469 10.9216 5.22926C8.93125 6.08221 6.9356 6.92983 4.94523 7.77745C4.90289 7.79878 4.86054 7.8361 4.8129 7.86275Z" fill="#E0E0E0"/>
<path d="M17.0462 11.1945C17.0568 10.5548 17.1627 9.92575 17.2156 9.29137C17.2527 8.84356 17.3056 8.39576 17.3585 7.89465C17.6867 8.20385 17.9885 8.4704 18.269 8.75827C19.3171 9.82446 20.3229 10.928 21.154 12.1807C21.7416 13.071 22.2762 13.9879 22.4668 15.0595C22.6203 15.9391 22.3556 16.6161 21.7045 16.9626C21.3869 17.1332 21.0428 17.2025 20.6882 17.2238C19.8253 17.2718 18.9836 17.1172 18.1631 16.872C17.6709 16.7281 17.1891 16.5681 16.718 16.3656C16.7339 16.2323 16.8556 16.2163 16.9456 16.163C17.6338 15.7472 17.9408 15.1341 17.9461 14.3291C17.9514 13.5082 17.7238 12.7352 17.4485 11.9782C17.3427 11.7116 17.2897 11.4024 17.0462 11.1945Z" fill="#F9FBFB"/>
<path d="M17.0462 11.1946C17.2897 11.4025 17.3427 11.7117 17.4432 11.9836C17.7185 12.7406 17.9408 13.5082 17.9408 14.3345C17.9355 15.1395 17.6285 15.7526 16.9404 16.1684C16.8557 16.2217 16.7339 16.243 16.7127 16.3709C16.5169 16.3443 16.5433 16.1897 16.5592 16.0671C16.6122 15.4807 16.6704 14.8889 16.7286 14.3025C16.8133 13.4336 16.898 12.5646 16.9827 11.6957C16.9986 11.5251 17.0251 11.3598 17.0462 11.1946Z" fill="#E0E0E0"/>
<path d="M16.5486 9.96837C16.3369 9.81911 16.2681 9.57388 16.141 9.36598C15.6699 8.58232 15.1617 7.83066 14.643 7.08432C14.8547 6.78579 15.0718 6.48725 15.2835 6.18872C15.6117 6.29534 15.8075 6.59387 16.0881 6.7698C16.6439 7.11631 16.9033 7.55878 16.7339 8.26247C16.6016 8.81155 16.6069 9.39796 16.5486 9.96837Z" fill="#F9FBFB"/>
<path d="M15.2888 6.18882C15.077 6.48735 14.86 6.78589 14.6483 7.08442C14.3148 7.52689 13.9813 7.97469 13.6478 8.41716C13.6054 8.4758 13.5684 8.53444 13.5155 8.58242C13.3937 8.68904 13.2508 8.69437 13.129 8.59308C12.9808 8.47047 12.9861 8.31587 13.0973 8.16661C13.4466 7.68682 13.8013 7.21236 14.1507 6.73791C14.2036 6.66861 14.2513 6.59397 14.2989 6.51934C14.4895 6.25812 14.733 6.03422 14.8441 5.71969C15.0029 5.64506 15.077 5.50112 15.1353 5.34653C15.654 4.78144 16.0775 4.15239 16.5063 3.51801C16.681 3.43804 16.8557 3.36874 17.0251 3.28344C17.1733 3.20348 17.2103 3.25679 17.1997 3.40072C17.1892 3.50201 17.1839 3.60863 17.1733 3.70992C17.1362 3.73124 17.0939 3.74724 17.0674 3.77922C16.6122 4.38695 16.1622 5.00001 15.7176 5.61307C15.6858 5.65039 15.6805 5.70903 15.6646 5.75701C15.4899 5.86363 15.4105 6.04488 15.2888 6.18882Z" fill="#32798A"/>
<path d="M14.8388 5.71436C14.7277 6.02889 14.4841 6.25279 14.2936 6.514C14.0342 6.37007 13.9177 6.10352 13.7431 5.89028C13.5048 5.59708 13.2772 5.29854 13.0443 5.00001C13.3196 4.78677 13.5631 4.78677 13.8595 5.02133C14.1718 5.27189 14.4683 5.5491 14.8388 5.71436Z" fill="#F9FBFB"/>
<path d="M18.4596 1.28427C18.4014 1.58814 18.1896 1.84403 17.9885 2.09991C17.835 2.29183 17.6603 2.46775 17.4433 2.59569C17.3691 2.63834 17.2845 2.70764 17.1998 2.649C17.0939 2.57437 17.1256 2.45176 17.1574 2.3558C17.258 2.03594 17.4591 1.77472 17.6762 1.5295C17.8244 1.36424 17.962 1.18832 18.1579 1.07637C18.3432 0.959086 18.4702 1.03905 18.4596 1.28427Z" fill="#93CFDE"/>
<path d="M12.5415 4.50951C12.5256 4.32292 12.3562 4.24829 12.2609 4.12034C12.2133 4.05637 12.0756 4.01373 12.1762 3.89111C12.4197 4.03505 12.6632 4.17899 12.8855 4.3709C12.7797 4.47752 12.6579 4.48818 12.5415 4.50951Z" fill="#F9FBFB"/>
<path d="M10.9534 19.1377C11.001 18.5513 11.054 17.9649 11.1016 17.3785C11.1175 17.3785 11.1387 17.3731 11.1546 17.3785C11.5992 17.4531 11.6098 17.4638 11.5833 17.9062C11.5622 18.1994 11.5092 18.4873 11.5092 18.7752C11.5092 19.0631 11.3557 19.1324 11.1175 19.1324C11.0593 19.1324 11.0063 19.1324 10.9534 19.1377Z" fill="#82ADBF"/>
</g>
<defs>
<clipPath id="clip0_1931_1588">
<rect width="24" height="24" fill="white"/>
</clipPath>
</defs>
</svg>
