<svg width="24" height="24" viewBox="0 0 24 24" fill="none" xmlns="http://www.w3.org/2000/svg">
<circle cx="12" cy="12" r="12" fill="white"/>
<path fill-rule="evenodd" clip-rule="evenodd" d="M9.32906 3.24004C8.86537 2.97233 8.3029 2.91431 7.81669 3.13854C4.38308 4.72211 2 8.19483 2 12.2242C2 17.747 6.47715 22.2242 12 22.2242C17.5228 22.2242 22 17.747 22 12.2242C22 11.9141 21.9859 11.6074 21.9583 11.3046C21.9096 10.7707 21.578 10.312 21.1138 10.044L9.32906 3.24004Z" fill="#051626"/>
<path fill-rule="evenodd" clip-rule="evenodd" d="M6.57031 9.72977C6.57031 9.16344 6.87465 8.6408 7.3672 8.36129L8.64741 7.63479C8.83473 7.52849 9.06434 7.52935 9.25087 7.63704L11.3131 8.82767C11.4971 8.93388 11.3895 9.44106 11.2042 9.54492L10.3798 10.007C9.88317 10.2854 9.57566 10.8103 9.57566 11.3796V12.2241C9.57566 12.7934 9.88317 13.3183 10.3798 13.5967L11.2042 14.0588C11.6821 14.3267 12.265 14.3267 12.7429 14.0588L13.5673 13.5967C14.0639 13.3183 14.3714 12.7934 14.3714 12.2241V11.3796C14.3714 11.159 14.7563 10.8156 14.9474 10.9259L17.1306 12.1864C17.3378 12.306 17.4655 12.5271 17.4655 12.7664V14.08C17.4655 14.6464 17.1611 15.169 16.6686 15.4485L12.7945 17.647C12.3128 17.9203 11.723 17.9203 11.2413 17.647L7.3672 15.4485C6.87465 15.169 6.57031 14.6464 6.57031 14.08V9.72977Z" fill="url(#paint0_linear_1917_1591)"/>
<defs>
<linearGradient id="paint0_linear_1917_1591" x1="12.0179" y1="7.55566" x2="12" y2="16.5" gradientUnits="userSpaceOnUse">
<stop stop-color="#26ABFF"/>
<stop offset="1" stop-color="#9DD6F8"/>
</linearGradient>
</defs>
</svg>
