<svg width="72" height="72" viewBox="0 0 72 72" fill="none" xmlns="http://www.w3.org/2000/svg">
<g clip-path="url(#clip0_4573_9)">
<path d="M64.0638 29.6326C65.3855 32.2789 63.4619 35.3912 60.5039 35.3912C55.1254 35.3912 47.6938 35.3912 43.5822 35.3912C36.6379 35.3912 36.6379 42.9751 36.6379 42.9751L30.325 30.3352C30.325 30.3352 30.325 22.7513 37.2692 22.7513C42.5557 22.7513 53.3299 22.7513 58.1729 22.7513C59.6811 22.7513 61.0528 23.6038 61.7267 24.9531L64.0638 29.6326Z" fill="#149AED"/>
<path d="M60.704 0C62.2123 2.54072e-07 63.578 0.852854 64.2519 2.20215L66.5888 6.88184C67.9103 9.52812 65.996 12.6396 63.038 12.6396C54.0684 12.6396 38.3482 12.6396 33.4814 12.6396C27.0483 12.6398 26.5747 19.1491 26.5398 20.1068C26.5387 20.1368 26.4967 20.1428 26.4832 20.116V20.116C26.4707 20.0909 26.4335 20.0953 26.4293 20.123C26.1093 22.2487 24.8184 26.5439 19.5927 26.5439H11.3212C9.8131 26.5438 8.43552 25.691 7.76166 24.3418L5.42474 19.6621C4.1032 17.0158 6.02536 13.9043 8.98334 13.9043H13.2802C19.7146 13.9043 20.1871 7.3928 20.2218 6.43662C20.2229 6.40684 20.2646 6.40079 20.2778 6.42747V6.42747C20.2902 6.45229 20.3271 6.44801 20.3312 6.4206C20.6512 4.29487 21.9433 -4.57342e-07 27.1689 0H60.704Z" fill="url(#paint0_linear_4573_9)"/>
<path d="M15.5245 42.4143C14.2028 39.768 16.125 36.6557 19.083 36.6557C20.342 36.6557 21.7771 36.6557 23.3804 36.6557C30.3246 36.6557 30.3246 29.0718 30.3246 29.0718L36.6375 41.7116C36.6375 41.7116 36.6375 49.2955 29.6933 49.2955C26.0235 49.2955 23.2352 49.2955 21.4216 49.2955C19.9134 49.2955 18.5356 48.4431 17.8617 47.0938L15.5245 42.4143Z" fill="#149AED"/>
<path d="M26.8878 65.1189C25.5661 62.4726 27.4883 59.3603 30.4463 59.3603C31.7053 59.3603 33.1404 59.3603 34.7437 59.3603C38.7882 59.3603 40.4771 56.7876 41.1823 54.639C41.4088 53.9489 42.6672 53.7371 42.9917 54.387L47.9283 64.271C47.976 64.3665 48.001 64.4683 47.9964 64.575C47.9494 65.6651 47.4033 72.0001 41.0566 72.0001C37.3868 72.0001 34.5985 72.0001 32.7849 72.0001C31.2767 72.0001 29.8989 71.1476 29.225 69.7983L26.8878 65.1189Z" fill="#149AED"/>
</g>
<defs>
<linearGradient id="paint0_linear_4573_9" x1="27.4308" y1="21.0369" x2="64.3756" y2="21.0369" gradientUnits="userSpaceOnUse">
<stop stop-color="#F1BC1D"/>
<stop offset="1" stop-color="#FF4400"/>
</linearGradient>
<clipPath id="clip0_4573_9">
<rect width="72" height="72" fill="white"/>
</clipPath>
</defs>
</svg>
