<svg width="90" height="90" viewBox="0 0 90 90" fill="none" xmlns="http://www.w3.org/2000/svg">
<circle cx="44.7544" cy="44.7544" r="44.7544" fill="white"/>
<path fill-rule="evenodd" clip-rule="evenodd" d="M33.2131 70.7693L41.7969 75.7252C43.7404 76.8473 46.1351 76.8467 48.078 75.7237L60.9984 68.256L42.612 57.6407C41.8585 57.2056 40.895 57.4638 40.46 58.2173L33.2131 70.7693ZM66.6668 64.9798L70.1561 62.963C72.097 61.8412 73.2926 59.7696 73.2928 57.5277L73.2943 40.7037L46.4129 47.9065L44.8712 50.5769C44.4361 51.3304 44.6943 52.2939 45.4478 52.729L66.6668 64.9798ZM56.6589 18.8169L48.0743 13.8606C46.1316 12.7389 43.738 12.739 41.7953 13.8609L19.7298 26.6031C19.6263 26.6628 19.5249 26.7253 19.4257 26.7904L42.5337 40.1317C43.2872 40.5668 44.2507 40.3086 44.6857 39.5551L56.6589 18.8169ZM16.5998 31.7077C16.594 31.817 16.591 31.9269 16.591 32.0372L16.5789 57.5377C16.5779 59.7819 17.7747 61.856 19.7182 62.978L28.3014 67.9336L40.2746 47.1955C40.7096 46.442 40.4514 45.4784 39.6979 45.0434L16.5998 31.7077Z" fill="#051626"/>
<path fill-rule="evenodd" clip-rule="evenodd" d="M73.2947 34.8322L73.2949 32.0475C73.2951 29.8042 72.0984 27.7312 70.1557 26.6095L61.5704 21.6528L52.3248 37.6667C51.623 38.8823 52.7412 40.3395 54.0969 39.9762L73.2947 34.8322Z" fill="#2CB3FF"/>
</svg>
