<?xml version="1.0" encoding="utf-8"?>
<!-- Generator: Adobe Illustrator 24.0.1, SVG Export Plug-In . SVG Version: 6.00 Build 0)  -->
<svg version="1.1" id="Layer_1" xmlns="http://www.w3.org/2000/svg" xmlns:xlink="http://www.w3.org/1999/xlink" x="0px" y="0px"
	 viewBox="0 0 513 513" style="enable-background:new 0 0 513 513;" xml:space="preserve">
<style type="text/css">
	.st0{fill:#0068FF;}
	.st1{fill:#B2D1FF;}
	.st2{fill:#FFFFFF;}
	.st3{opacity:0.3;fill:#0068FF;enable-background:new    ;}
</style>
<g>
	<ellipse transform="matrix(0.7071 -0.7071 0.7071 0.7071 -106.2457 256.5)" class="st0" cx="256.5" cy="256.5" rx="256" ry="256"/>
	<path class="st1" d="M60.2,370.5L95,381.9c50.3,15.2,102.6,23.2,155.2,23.7c12.1-0.1,24.1-0.5,36.1-1.4c12-0.9,24-2.2,35.9-4
		c-14.9-26.8-31.9-52.4-50.7-76.6c-7,0.7-14.1,0.7-21.3,0.7c-31-0.3-61.8-3.8-92.1-10.3c8.5-26.1,19.2-51.5,32.1-75.7
		c-20.7-17.9-42.7-34.4-65.8-49.2c-25.6,45.7-44.6,94.7-56.6,145.7L60.2,370.5z"/>
	<path class="st2" d="M195.3,229.1c15.7-26.7,34.1-51.7,54.8-74.7c20.7,23,39.1,48,54.8,74.7c15.3,27,27.8,55.5,37.4,85
		c-23.4,5-47.1,8.1-70.9,9.5c18.9,24.2,35.8,49.8,50.7,76.6c28.1-4,55.9-10.1,83.1-18.3l34.9-11.3l-7.6-35.8
		c-12-51.2-31.2-100.4-57-146.2c-26.8-45.2-59.9-86.5-98.2-122.5l-27.3-24.5l-27.2,24.5c-38.3,36-71.4,77.2-98.2,122.4l-0.4,0.7
		c23,14.9,45,31.3,65.8,49.2C191.8,235.2,193.5,232.2,195.3,229.1z"/>
	<path class="st0" d="M304.9,229.1c-15.7-26.7-34.1-51.7-54.8-74.7c-20.7,23-39.1,48-54.8,74.7c-1.8,3.1-3.4,6.1-5.1,9.2
		c-12.9,24.3-23.7,49.6-32.1,75.7c30.3,6.5,61.1,10,92.1,10.3c7.2,0,14.3-0.3,21.3-0.7c23.8-1.4,47.6-4.5,70.9-9.5
		C332.7,284.6,320.2,256.1,304.9,229.1z"/>
	<path class="st0" d="M271.4,323.6c-7,0.5-14.1,0.7-21.3,0.7C257.3,324.3,264.4,324.3,271.4,323.6z"/>
	<path class="st3" d="M271.4,323.6c-7,0.5-14.1,0.7-21.3,0.7C257.3,324.3,264.4,324.3,271.4,323.6z"/>
</g>
</svg>
