<svg width="150" height="157" viewBox="0 0 150 157" fill="none" xmlns="http://www.w3.org/2000/svg">
<path d="M14.6679 116.981C10.1893 119.567 10.1893 126.031 14.6679 128.617L61.326 155.555C65.8046 158.141 71.4028 154.909 71.4028 149.737V95.8608C71.4028 90.6894 65.8046 87.4573 61.326 90.043L14.6679 116.981Z" fill="#00B118"/>
<path d="M134.936 39.484C139.415 36.8983 139.415 30.434 134.936 27.8483L88.278 0.910036C83.7994 -1.67569 78.2012 1.55644 78.2012 6.72787L78.2012 60.6041C78.2012 65.7755 83.7994 69.0077 88.278 66.422L134.936 39.484Z" fill="url(#paint0_linear_4614_164)"/>
<path d="M78.2921 149.684C78.2921 154.856 83.8904 158.088 88.3689 155.502L135.027 128.564C139.506 125.979 139.506 119.514 135.027 116.929L88.369 89.9904C83.8904 87.4047 78.2922 90.6368 78.2922 95.8083L78.2921 149.684Z" fill="#DF4625"/>
<path d="M71.3119 6.78059C71.3119 1.60917 65.7137 -1.62297 61.2351 0.962727L14.5768 27.9007C10.0982 30.4864 10.0982 36.9507 14.5768 39.5364L61.235 66.4745C65.7136 69.0603 71.3118 65.8281 71.3118 60.6567L71.3119 6.78059Z" fill="#F4E54D"/>
<path d="M138.426 110.936C142.905 113.522 148.503 110.29 148.503 105.118L148.503 51.2419C148.503 46.0704 142.905 42.8383 138.426 45.424L91.7679 72.3621C87.2894 74.9478 87.2894 81.4121 91.7679 83.9978L138.426 110.936Z" fill="url(#paint1_linear_4614_164)"/>
<path d="M11.178 45.529C6.69944 42.9433 1.10122 46.1754 1.1012 51.3469L1.10104 105.223C1.10103 110.395 6.69926 113.627 11.1779 111.041L57.8361 84.1028C62.3146 81.5171 62.3147 75.0529 57.8361 72.4671L11.178 45.529Z" fill="#ADCF00"/>
<defs>
<linearGradient id="paint0_linear_4614_164" x1="89.7012" y1="44" x2="126.201" y2="37.5" gradientUnits="userSpaceOnUse">
<stop stop-color="#FFC937"/>
<stop offset="1" stop-color="#FFF362"/>
</linearGradient>
<linearGradient id="paint1_linear_4614_164" x1="133.201" y1="84.5" x2="139.701" y2="56.5" gradientUnits="userSpaceOnUse">
<stop stop-color="#DE6D10"/>
<stop offset="1" stop-color="#FFC35B"/>
</linearGradient>
</defs>
</svg>
